French Revolution (2005 History Channel)

Product Description (Amazon)

On July 14, 1789, a mob of angry Parisians stormed the Bastille and seized the King's military stores. A decade of idealism, war, murder, and carnage followed, bringing about the end of feudalism and the rise of equality and a new world order. The French Revolution is a definitive feature-length documentary that encapsulates this heady (and often headless) period in Western civilization. With dramatic reenactments, illustrations, and paintings from the era, plus revealing accounts from journals and expert commentary from historians, The French Revolution vividly unfurls in a maelstrom of violence, discontent, and fundamental change. King Louis XVI, Marie Antoinette, Maximilien Robespierre, and Napoleon Bonaparte lead a cast of thousands in this essential program from THE HISTORY CHANNEL®. Narrated by Edward Herrmann (The Aviator, Gilmore Girls), The French Revolution explores the legacy that--now more than ever--stands as both a warning and a guidepost to a new millennium.

This Torrent includes both the main feature and a 'making of' featurette.


Format                           : AVI
Format/Info                      : Audio Video Interleave
File size                        : 699 MiB
Duration                         : 1h 30mn
Overall bit rate                 : 1081 Kbps


Video
ID                               : 0
Format                           : MPEG-4 Visual
Codec ID                         : XVID
Codec ID/Hint                    : XviD
Duration                         : 1h 30mn
Bit rate                         : 951 Kbps
Width                            : 544 pixels
Height                           : 352 pixels
Display aspect ratio             : 3:2
Frame rate                       : 29.970 fps
Resolution                       : 8 bits
Colorimetry                      : 4:2:0
Scan type                        : Progressive
Bits/(Pixel*Frame)               : 0.166
Stream size                      : 615 MiB (88%)
Writing library                  : XviD 1.2.1 (UTC 2008-12-04)

Audio
ID                               : 1
Format                           : MPEG Audio
Format version                   : Version 1
Format profile                   : Layer 3
Mode                             : Joint stereo
Format_Settings_ModeExtension    : MS Stereo
Codec ID                         : 55
Codec ID/Hint                    : MP3
Duration                         : 1h 30mn
Bit rate mode                    : Variable
Bit rate                         : 117 Kbps
Nominal bit rate                 : 128 Kbps
Channel(s)                       : 2 channels
Sampling rate                    : 48.0 KHz
Stream size                      : 75.5 MiB (11%)

Language                         : English - No Subtitles
 
http://www.imdb.com/title/tt0444633/
 
http://www.amazon.com/French-Revolution-History-Channel/dp/B0007GP836

Product Details

    * Actors: Edward Herrmann, George Ivascu, Rodica Lazar, Tomi Cristin, Phillip Levine
    * Directors: Doug Shultz
    * Writers: Doug Shultz, Hilary Sio, Thomas Emil
    * Producers: Peter Schnall, Doug Shultz, Beth Dietrich, Hilary Sio, Sandya Viswanathan
    * Format: Color, DVD, NTSC
    * Language: English (Dolby Digital 2.0)
    * Region: Region 1 (U.S. and Canada only. Read more about DVD formats.)
    * Aspect Ratio: 1.33:1
    * Number of discs: 1
    * Rating: NR (Not Rated)
    * Studio: A&E Home Video
    * DVD Release Date: March 29, 2005
    * Run Time: 100 minutes

 
http://bayimg.com/Daldlaaco
